# xmcd
#
# Track frame offsets: 
#        150
#        13517
#        25494
#        37565
#        50764
#        68195
#        86562
#        108605
#        131382
#        147000
#        159587
#        175725
#        189605
#        204295
#
# Disc length: 2938 seconds
#
# Revision: 1
# Processed by: cddbd v1.5PL3 Copyright (c) Steve Scherf et al.
# Submitted via: ExactAudioCopy v0.95a5
#
DISCID=b50b780e
DTITLE=Various Artist - Soul Train: 1970
DYEAR=2000
DGENRE=R&B/Soul
TTITLE0=The Jackson 5 - ABC
TTITLE1=Tyrone Davis - Turn Back The Hands Of Time
TTITLE2=Chairmen Of The Board - Give Me Just A Little More Time
TTITLE3=Freda Payne - Band Of Gold
TTITLE4=Brook Benton - Rainy Night In Georga
TTITLE5=The Temptations - Ball Of Confusion (That's What The World Is 
TTITLE5=Today)
TTITLE6=Eric Burdon and War - Spill The Wine
TTITLE7=James Brown - Super Bad (Part 1 and Part 2)
TTITLE8=Edwin Starr - War
TTITLE9=100 Proof Aged In Soul - Sombody's Been Sleeping
TTITLE10=The Moments - Love On A Two-Way Street
TTITLE11=Smokey Robinson and The Miracles - The Tears Of A Clown
TTITLE12=The 5 Stairsteps - O-O-H Child
TTITLE13=The Flaming Ember - Westbound #9
EXTD=
EXTT0=
EXTT1=
EXTT2=
EXTT3=
EXTT4=
EXTT5=
EXTT6=
EXTT7=
EXTT8=
EXTT9=
EXTT10=
EXTT11=
EXTT12=
EXTT13=
PLAYORDER=
